M48
; DRILL file {KiCad (5.1.6)-1} date 01/04/22 17:41:09
; FORMAT={-:-/ absolute / metric / decimal}
; #@! TF.CreationDate,2022-01-04T17:41:09+01:00
; #@! TF.GenerationSoftware,Kicad,Pcbnew,(5.1.6)-1
FMAT,2
METRIC
T1C0.200
T2C0.400
T3C0.600
%
G90
G05
T1
X154.94Y-93.98
X156.21Y-95.25
X156.21Y-96.52
X157.48Y-96.52
X158.75Y-87.63
X158.75Y-88.9
X158.75Y-91.44
X159.766Y-96.901
X160.02Y-87.63
X161.036Y-96.901
X161.29Y-87.63
X161.4Y-94.92
X162.306Y-96.901
X162.4Y-94.92
X162.56Y-87.63
X163.83Y-87.63
X164.909Y-90.17
X165.1Y-96.52
X170.053Y-92.71
X170.053Y-93.98
X170.053Y-95.25
T2
X158.85Y-93.77
X159.25Y-93.07
X159.65Y-93.77
X160.05Y-93.07
X160.45Y-93.77
X160.85Y-93.07
X161.25Y-93.77
X162.05Y-93.77
X162.45Y-93.07
X162.85Y-93.77
X163.25Y-93.07
X163.65Y-93.77
X164.05Y-93.07
X164.45Y-93.77
T3
X157.38Y-88.19G85X157.38Y-87.59
G05
X157.38Y-92.92G85X157.38Y-92.32
G05
X165.92Y-88.19G85X165.92Y-87.59
G05
X165.92Y-92.92G85X165.92Y-92.32
G05
T0
M30
