%TF.GenerationSoftware,KiCad,Pcbnew,(5.1.6)-1*%
%TF.CreationDate,2022-01-04T17:41:04+01:00*%
%TF.ProjectId,headphone_plug,68656164-7068-46f6-9e65-5f706c75672e,rev?*%
%TF.SameCoordinates,Original*%
%TF.FileFunction,Legend,Top*%
%TF.FilePolarity,Positive*%
%FSLAX46Y46*%
G04 Gerber Fmt 4.6, Leading zero omitted, Abs format (unit mm)*
G04 Created by KiCad (PCBNEW (5.1.6)-1) date 2022-01-04 17:41:04*
%MOMM*%
%LPD*%
G01*
G04 APERTURE LIST*
%ADD10C,0.090000*%
%ADD11C,0.120000*%
%ADD12O,1.300000X1.900000*%
%ADD13R,0.400000X1.100000*%
%ADD14C,0.750000*%
G04 APERTURE END LIST*
D10*
X158772571Y-89841428D02*
X158772571Y-90270000D01*
X158744000Y-90355714D01*
X158686857Y-90412857D01*
X158601142Y-90441428D01*
X158544000Y-90441428D01*
X159344000Y-90441428D02*
X159058285Y-90441428D01*
X159058285Y-89841428D01*
X159886857Y-90384285D02*
X159858285Y-90412857D01*
X159772571Y-90441428D01*
X159715428Y-90441428D01*
X159629714Y-90412857D01*
X159572571Y-90355714D01*
X159544000Y-90298571D01*
X159515428Y-90184285D01*
X159515428Y-90098571D01*
X159544000Y-89984285D01*
X159572571Y-89927142D01*
X159629714Y-89870000D01*
X159715428Y-89841428D01*
X159772571Y-89841428D01*
X159858285Y-89870000D01*
X159886857Y-89898571D01*
X160315428Y-89841428D02*
X160315428Y-90270000D01*
X160286857Y-90355714D01*
X160229714Y-90412857D01*
X160144000Y-90441428D01*
X160086857Y-90441428D01*
X160886857Y-90441428D02*
X160601142Y-90441428D01*
X160601142Y-89841428D01*
X161429714Y-90384285D02*
X161401142Y-90412857D01*
X161315428Y-90441428D01*
X161258285Y-90441428D01*
X161172571Y-90412857D01*
X161115428Y-90355714D01*
X161086857Y-90298571D01*
X161058285Y-90184285D01*
X161058285Y-90098571D01*
X161086857Y-89984285D01*
X161115428Y-89927142D01*
X161172571Y-89870000D01*
X161258285Y-89841428D01*
X161315428Y-89841428D01*
X161401142Y-89870000D01*
X161429714Y-89898571D01*
X161858285Y-89841428D02*
X161858285Y-90270000D01*
X161829714Y-90355714D01*
X161772571Y-90412857D01*
X161686857Y-90441428D01*
X161629714Y-90441428D01*
X162429714Y-90441428D02*
X162144000Y-90441428D01*
X162144000Y-89841428D01*
X162972571Y-90384285D02*
X162944000Y-90412857D01*
X162858285Y-90441428D01*
X162801142Y-90441428D01*
X162715428Y-90412857D01*
X162658285Y-90355714D01*
X162629714Y-90298571D01*
X162601142Y-90184285D01*
X162601142Y-90098571D01*
X162629714Y-89984285D01*
X162658285Y-89927142D01*
X162715428Y-89870000D01*
X162801142Y-89841428D01*
X162858285Y-89841428D01*
X162944000Y-89870000D01*
X162972571Y-89898571D01*
X163401142Y-89841428D02*
X163401142Y-90270000D01*
X163372571Y-90355714D01*
X163315428Y-90412857D01*
X163229714Y-90441428D01*
X163172571Y-90441428D01*
X163972571Y-90441428D02*
X163686857Y-90441428D01*
X163686857Y-89841428D01*
X164515428Y-90384285D02*
X164486857Y-90412857D01*
X164401142Y-90441428D01*
X164344000Y-90441428D01*
X164258285Y-90412857D01*
X164201142Y-90355714D01*
X164172571Y-90298571D01*
X164144000Y-90184285D01*
X164144000Y-90098571D01*
X164172571Y-89984285D01*
X164201142Y-89927142D01*
X164258285Y-89870000D01*
X164344000Y-89841428D01*
X164401142Y-89841428D01*
X164486857Y-89870000D01*
X164515428Y-89898571D01*
X156858285Y-96379000D02*
X157144000Y-96379000D01*
X156801142Y-96550428D02*
X157001142Y-95950428D01*
X157201142Y-96550428D01*
X157401142Y-96236142D02*
X157601142Y-96236142D01*
X157686857Y-96550428D02*
X157401142Y-96550428D01*
X157401142Y-95950428D01*
X157686857Y-95950428D01*
X157915428Y-96007571D02*
X157944000Y-95979000D01*
X158001142Y-95950428D01*
X158144000Y-95950428D01*
X158201142Y-95979000D01*
X158229714Y-96007571D01*
X158258285Y-96064714D01*
X158258285Y-96121857D01*
X158229714Y-96207571D01*
X157886857Y-96550428D01*
X158258285Y-96550428D01*
X158486857Y-96521857D02*
X158572571Y-96550428D01*
X158715428Y-96550428D01*
X158772571Y-96521857D01*
X158801142Y-96493285D01*
X158829714Y-96436142D01*
X158829714Y-96379000D01*
X158801142Y-96321857D01*
X158772571Y-96293285D01*
X158715428Y-96264714D01*
X158601142Y-96236142D01*
X158544000Y-96207571D01*
X158515428Y-96179000D01*
X158486857Y-96121857D01*
X158486857Y-96064714D01*
X158515428Y-96007571D01*
X158544000Y-95979000D01*
X158601142Y-95950428D01*
X158744000Y-95950428D01*
X158829714Y-95979000D01*
X159172571Y-96550428D02*
X159115428Y-96521857D01*
X159086857Y-96493285D01*
X159058285Y-96436142D01*
X159058285Y-96264714D01*
X159086857Y-96207571D01*
X159115428Y-96179000D01*
X159172571Y-96150428D01*
X159258285Y-96150428D01*
X159315428Y-96179000D01*
X159344000Y-96207571D01*
X159372571Y-96264714D01*
X159372571Y-96436142D01*
X159344000Y-96493285D01*
X159315428Y-96521857D01*
X159258285Y-96550428D01*
X159172571Y-96550428D01*
X159886857Y-96150428D02*
X159886857Y-96550428D01*
X159629714Y-96150428D02*
X159629714Y-96464714D01*
X159658285Y-96521857D01*
X159715428Y-96550428D01*
X159801142Y-96550428D01*
X159858285Y-96521857D01*
X159886857Y-96493285D01*
X160172571Y-96150428D02*
X160172571Y-96550428D01*
X160172571Y-96207571D02*
X160201142Y-96179000D01*
X160258285Y-96150428D01*
X160344000Y-96150428D01*
X160401142Y-96179000D01*
X160429714Y-96236142D01*
X160429714Y-96550428D01*
X160972571Y-96550428D02*
X160972571Y-95950428D01*
X160972571Y-96521857D02*
X160915428Y-96550428D01*
X160801142Y-96550428D01*
X160744000Y-96521857D01*
X160715428Y-96493285D01*
X160686857Y-96436142D01*
X160686857Y-96264714D01*
X160715428Y-96207571D01*
X160744000Y-96179000D01*
X160801142Y-96150428D01*
X160915428Y-96150428D01*
X160972571Y-96179000D01*
X161344000Y-96550428D02*
X161286857Y-96521857D01*
X161258285Y-96464714D01*
X161258285Y-95950428D01*
X161572571Y-96550428D02*
X161572571Y-96150428D01*
X161572571Y-95950428D02*
X161544000Y-95979000D01*
X161572571Y-96007571D01*
X161601142Y-95979000D01*
X161572571Y-95950428D01*
X161572571Y-96007571D01*
X161858285Y-96150428D02*
X161858285Y-96550428D01*
X161858285Y-96207571D02*
X161886857Y-96179000D01*
X161944000Y-96150428D01*
X162029714Y-96150428D01*
X162086857Y-96179000D01*
X162115428Y-96236142D01*
X162115428Y-96550428D01*
X162401142Y-96550428D02*
X162401142Y-95950428D01*
X162458285Y-96321857D02*
X162629714Y-96550428D01*
X162629714Y-96150428D02*
X162401142Y-96379000D01*
X162744000Y-96607571D02*
X163201142Y-96607571D01*
X163344000Y-95950428D02*
X163344000Y-96436142D01*
X163372571Y-96493285D01*
X163401142Y-96521857D01*
X163458285Y-96550428D01*
X163572571Y-96550428D01*
X163629714Y-96521857D01*
X163658285Y-96493285D01*
X163686857Y-96436142D01*
X163686857Y-95950428D01*
X163944000Y-96521857D02*
X164029714Y-96550428D01*
X164172571Y-96550428D01*
X164229714Y-96521857D01*
X164258285Y-96493285D01*
X164286857Y-96436142D01*
X164286857Y-96379000D01*
X164258285Y-96321857D01*
X164229714Y-96293285D01*
X164172571Y-96264714D01*
X164058285Y-96236142D01*
X164001142Y-96207571D01*
X163972571Y-96179000D01*
X163944000Y-96121857D01*
X163944000Y-96064714D01*
X163972571Y-96007571D01*
X164001142Y-95979000D01*
X164058285Y-95950428D01*
X164201142Y-95950428D01*
X164286857Y-95979000D01*
X164744000Y-96236142D02*
X164829714Y-96264714D01*
X164858285Y-96293285D01*
X164886857Y-96350428D01*
X164886857Y-96436142D01*
X164858285Y-96493285D01*
X164829714Y-96521857D01*
X164772571Y-96550428D01*
X164544000Y-96550428D01*
X164544000Y-95950428D01*
X164744000Y-95950428D01*
X164801142Y-95979000D01*
X164829714Y-96007571D01*
X164858285Y-96064714D01*
X164858285Y-96121857D01*
X164829714Y-96179000D01*
X164801142Y-96207571D01*
X164744000Y-96236142D01*
X164544000Y-96236142D01*
X165144000Y-96321857D02*
X165601142Y-96321857D01*
X166229714Y-96493285D02*
X166201142Y-96521857D01*
X166115428Y-96550428D01*
X166058285Y-96550428D01*
X165972571Y-96521857D01*
X165915428Y-96464714D01*
X165886857Y-96407571D01*
X165858285Y-96293285D01*
X165858285Y-96207571D01*
X165886857Y-96093285D01*
X165915428Y-96036142D01*
X165972571Y-95979000D01*
X166058285Y-95950428D01*
X166115428Y-95950428D01*
X166201142Y-95979000D01*
X166229714Y-96007571D01*
X157315428Y-96940428D02*
X157658285Y-96940428D01*
X157486857Y-97540428D02*
X157486857Y-96940428D01*
X157858285Y-97540428D02*
X157858285Y-97140428D01*
X157858285Y-96940428D02*
X157829714Y-96969000D01*
X157858285Y-96997571D01*
X157886857Y-96969000D01*
X157858285Y-96940428D01*
X157858285Y-96997571D01*
X158144000Y-97540428D02*
X158144000Y-97140428D01*
X158144000Y-97197571D02*
X158172571Y-97169000D01*
X158229714Y-97140428D01*
X158315428Y-97140428D01*
X158372571Y-97169000D01*
X158401142Y-97226142D01*
X158401142Y-97540428D01*
X158401142Y-97226142D02*
X158429714Y-97169000D01*
X158486857Y-97140428D01*
X158572571Y-97140428D01*
X158629714Y-97169000D01*
X158658285Y-97226142D01*
X158658285Y-97540428D01*
X159715428Y-96969000D02*
X159658285Y-96940428D01*
X159572571Y-96940428D01*
X159486857Y-96969000D01*
X159429714Y-97026142D01*
X159401142Y-97083285D01*
X159372571Y-97197571D01*
X159372571Y-97283285D01*
X159401142Y-97397571D01*
X159429714Y-97454714D01*
X159486857Y-97511857D01*
X159572571Y-97540428D01*
X159629714Y-97540428D01*
X159715428Y-97511857D01*
X159744000Y-97483285D01*
X159744000Y-97283285D01*
X159629714Y-97283285D01*
X160086857Y-97540428D02*
X160029714Y-97511857D01*
X160001142Y-97483285D01*
X159972571Y-97426142D01*
X159972571Y-97254714D01*
X160001142Y-97197571D01*
X160029714Y-97169000D01*
X160086857Y-97140428D01*
X160172571Y-97140428D01*
X160229714Y-97169000D01*
X160258285Y-97197571D01*
X160286857Y-97254714D01*
X160286857Y-97426142D01*
X160258285Y-97483285D01*
X160229714Y-97511857D01*
X160172571Y-97540428D01*
X160086857Y-97540428D01*
X160629714Y-97540428D02*
X160572571Y-97511857D01*
X160544000Y-97454714D01*
X160544000Y-96940428D01*
X160944000Y-97540428D02*
X160886857Y-97511857D01*
X160858285Y-97454714D01*
X160858285Y-96940428D01*
X161201142Y-97511857D02*
X161201142Y-97540428D01*
X161172571Y-97597571D01*
X161144000Y-97626142D01*
X162029714Y-96940428D02*
X162086857Y-96940428D01*
X162144000Y-96969000D01*
X162172571Y-96997571D01*
X162201142Y-97054714D01*
X162229714Y-97169000D01*
X162229714Y-97311857D01*
X162201142Y-97426142D01*
X162172571Y-97483285D01*
X162144000Y-97511857D01*
X162086857Y-97540428D01*
X162029714Y-97540428D01*
X161972571Y-97511857D01*
X161944000Y-97483285D01*
X161915428Y-97426142D01*
X161886857Y-97311857D01*
X161886857Y-97169000D01*
X161915428Y-97054714D01*
X161944000Y-96997571D01*
X161972571Y-96969000D01*
X162029714Y-96940428D01*
X162801142Y-97540428D02*
X162458285Y-97540428D01*
X162629714Y-97540428D02*
X162629714Y-96940428D01*
X162572571Y-97026142D01*
X162515428Y-97083285D01*
X162458285Y-97111857D01*
X163486857Y-96911857D02*
X162972571Y-97683285D01*
X163658285Y-96997571D02*
X163686857Y-96969000D01*
X163744000Y-96940428D01*
X163886857Y-96940428D01*
X163944000Y-96969000D01*
X163972571Y-96997571D01*
X164001142Y-97054714D01*
X164001142Y-97111857D01*
X163972571Y-97197571D01*
X163629714Y-97540428D01*
X164001142Y-97540428D01*
X164372571Y-96940428D02*
X164429714Y-96940428D01*
X164486857Y-96969000D01*
X164515428Y-96997571D01*
X164544000Y-97054714D01*
X164572571Y-97169000D01*
X164572571Y-97311857D01*
X164544000Y-97426142D01*
X164515428Y-97483285D01*
X164486857Y-97511857D01*
X164429714Y-97540428D01*
X164372571Y-97540428D01*
X164315428Y-97511857D01*
X164286857Y-97483285D01*
X164258285Y-97426142D01*
X164229714Y-97311857D01*
X164229714Y-97169000D01*
X164258285Y-97054714D01*
X164286857Y-96997571D01*
X164315428Y-96969000D01*
X164372571Y-96940428D01*
X164801142Y-96997571D02*
X164829714Y-96969000D01*
X164886857Y-96940428D01*
X165029714Y-96940428D01*
X165086857Y-96969000D01*
X165115428Y-96997571D01*
X165144000Y-97054714D01*
X165144000Y-97111857D01*
X165115428Y-97197571D01*
X164772571Y-97540428D01*
X165144000Y-97540428D01*
X165372571Y-96997571D02*
X165401142Y-96969000D01*
X165458285Y-96940428D01*
X165601142Y-96940428D01*
X165658285Y-96969000D01*
X165686857Y-96997571D01*
X165715428Y-97054714D01*
X165715428Y-97111857D01*
X165686857Y-97197571D01*
X165344000Y-97540428D01*
X165715428Y-97540428D01*
D11*
%TO.C,J1*%
X158400000Y-95060000D02*
X156800000Y-95060000D01*
X156800000Y-95060000D02*
X156800000Y-93560000D01*
X166500000Y-95060000D02*
X166500000Y-93560000D01*
X166500000Y-95060000D02*
X164900000Y-95060000D01*
X166500000Y-91660000D02*
X166500000Y-88860000D01*
X156800000Y-91660000D02*
X156800000Y-88860000D01*
X163650000Y-84440000D02*
X159650000Y-84440000D01*
%TD*%
%LPC*%
D12*
%TO.C,J1*%
X165920000Y-92620000D03*
D13*
X164400000Y-94920000D03*
X163900000Y-94920000D03*
X163400000Y-94920000D03*
X162900000Y-94920000D03*
X162400000Y-94920000D03*
X161900000Y-94920000D03*
X161400000Y-94920000D03*
X158900000Y-94920000D03*
X159900000Y-94920000D03*
X160400000Y-94920000D03*
X160900000Y-94920000D03*
X159400000Y-94920000D03*
D12*
X157380000Y-92620000D03*
X157380000Y-87890000D03*
X165920000Y-87890000D03*
D14*
X158850000Y-93770000D03*
X160450000Y-93770000D03*
X161250000Y-93770000D03*
X162050000Y-93770000D03*
X162850000Y-93770000D03*
X164450000Y-93770000D03*
X159250000Y-93070000D03*
X160050000Y-93070000D03*
X160850000Y-93070000D03*
X162450000Y-93070000D03*
X163250000Y-93070000D03*
X164050000Y-93070000D03*
X159650000Y-93770000D03*
X163650000Y-93770000D03*
%TD*%
M02*
