%TF.GenerationSoftware,KiCad,Pcbnew,(5.1.6)-1*%
%TF.CreationDate,2022-01-04T17:41:04+01:00*%
%TF.ProjectId,headphone_plug,68656164-7068-46f6-9e65-5f706c75672e,rev?*%
%TF.SameCoordinates,Original*%
%TF.FileFunction,Legend,Bot*%
%TF.FilePolarity,Positive*%
%FSLAX46Y46*%
G04 Gerber Fmt 4.6, Leading zero omitted, Abs format (unit mm)*
G04 Created by KiCad (PCBNEW (5.1.6)-1) date 2022-01-04 17:41:04*
%MOMM*%
%LPD*%
G01*
G04 APERTURE LIST*
%ADD10C,0.100000*%
%ADD11C,0.120000*%
%ADD12C,0.150000*%
%ADD13O,1.300000X1.900000*%
%ADD14C,0.750000*%
%ADD15R,0.862000X1.624000*%
G04 APERTURE END LIST*
D10*
X163326000Y-94804142D02*
X163302190Y-94756523D01*
X163302190Y-94685095D01*
X163326000Y-94613666D01*
X163373619Y-94566047D01*
X163421238Y-94542238D01*
X163516476Y-94518428D01*
X163587904Y-94518428D01*
X163683142Y-94542238D01*
X163730761Y-94566047D01*
X163778380Y-94613666D01*
X163802190Y-94685095D01*
X163802190Y-94732714D01*
X163778380Y-94804142D01*
X163754571Y-94827952D01*
X163587904Y-94827952D01*
X163587904Y-94732714D01*
X163802190Y-95042238D02*
X163302190Y-95042238D01*
X163802190Y-95327952D01*
X163302190Y-95327952D01*
X163802190Y-95566047D02*
X163302190Y-95566047D01*
X163302190Y-95685095D01*
X163326000Y-95756523D01*
X163373619Y-95804142D01*
X163421238Y-95827952D01*
X163516476Y-95851761D01*
X163587904Y-95851761D01*
X163683142Y-95827952D01*
X163730761Y-95804142D01*
X163778380Y-95756523D01*
X163802190Y-95685095D01*
X163802190Y-95566047D01*
X162032190Y-94423190D02*
X162436952Y-94423190D01*
X162484571Y-94447000D01*
X162508380Y-94470809D01*
X162532190Y-94518428D01*
X162532190Y-94613666D01*
X162508380Y-94661285D01*
X162484571Y-94685095D01*
X162436952Y-94708904D01*
X162032190Y-94708904D01*
X162532190Y-94947000D02*
X162032190Y-94947000D01*
X162032190Y-95066047D01*
X162056000Y-95137476D01*
X162103619Y-95185095D01*
X162151238Y-95208904D01*
X162246476Y-95232714D01*
X162317904Y-95232714D01*
X162413142Y-95208904D01*
X162460761Y-95185095D01*
X162508380Y-95137476D01*
X162532190Y-95066047D01*
X162532190Y-94947000D01*
X162341714Y-95447000D02*
X162341714Y-95827952D01*
X162532190Y-95637476D02*
X162151238Y-95637476D01*
X160762190Y-94423190D02*
X161166952Y-94423190D01*
X161214571Y-94447000D01*
X161238380Y-94470809D01*
X161262190Y-94518428D01*
X161262190Y-94613666D01*
X161238380Y-94661285D01*
X161214571Y-94685095D01*
X161166952Y-94708904D01*
X160762190Y-94708904D01*
X161262190Y-94947000D02*
X160762190Y-94947000D01*
X160762190Y-95066047D01*
X160786000Y-95137476D01*
X160833619Y-95185095D01*
X160881238Y-95208904D01*
X160976476Y-95232714D01*
X161047904Y-95232714D01*
X161143142Y-95208904D01*
X161190761Y-95185095D01*
X161238380Y-95137476D01*
X161262190Y-95066047D01*
X161262190Y-94947000D01*
X161071714Y-95447000D02*
X161071714Y-95827952D01*
X159492190Y-94566047D02*
X159992190Y-94732714D01*
X159492190Y-94899380D01*
X159944571Y-95351761D02*
X159968380Y-95327952D01*
X159992190Y-95256523D01*
X159992190Y-95208904D01*
X159968380Y-95137476D01*
X159920761Y-95089857D01*
X159873142Y-95066047D01*
X159777904Y-95042238D01*
X159706476Y-95042238D01*
X159611238Y-95066047D01*
X159563619Y-95089857D01*
X159516000Y-95137476D01*
X159492190Y-95208904D01*
X159492190Y-95256523D01*
X159516000Y-95327952D01*
X159539809Y-95351761D01*
X159944571Y-95851761D02*
X159968380Y-95827952D01*
X159992190Y-95756523D01*
X159992190Y-95708904D01*
X159968380Y-95637476D01*
X159920761Y-95589857D01*
X159873142Y-95566047D01*
X159777904Y-95542238D01*
X159706476Y-95542238D01*
X159611238Y-95566047D01*
X159563619Y-95589857D01*
X159516000Y-95637476D01*
X159492190Y-95708904D01*
X159492190Y-95756523D01*
X159516000Y-95827952D01*
X159539809Y-95851761D01*
D11*
%TO.C,R1*%
X168019252Y-95810000D02*
X167496748Y-95810000D01*
X168019252Y-97230000D02*
X167496748Y-97230000D01*
%TO.C,C1*%
X168037252Y-93905000D02*
X167514748Y-93905000D01*
X168037252Y-95325000D02*
X167514748Y-95325000D01*
%TO.C,R2*%
X160984000Y-89917748D02*
X160984000Y-90440252D01*
X159564000Y-89917748D02*
X159564000Y-90440252D01*
%TO.C,R3*%
X162358000Y-89917748D02*
X162358000Y-90440252D01*
X163778000Y-89917748D02*
X163778000Y-90440252D01*
%TO.C,R1*%
D12*
X165233333Y-96881904D02*
X165500000Y-96500952D01*
X165690476Y-96881904D02*
X165690476Y-96081904D01*
X165385714Y-96081904D01*
X165309523Y-96120000D01*
X165271428Y-96158095D01*
X165233333Y-96234285D01*
X165233333Y-96348571D01*
X165271428Y-96424761D01*
X165309523Y-96462857D01*
X165385714Y-96500952D01*
X165690476Y-96500952D01*
X164471428Y-96881904D02*
X164928571Y-96881904D01*
X164700000Y-96881904D02*
X164700000Y-96081904D01*
X164776190Y-96196190D01*
X164852380Y-96272380D01*
X164928571Y-96310476D01*
%TO.C,C1*%
X165233333Y-95027714D02*
X165271428Y-95065809D01*
X165385714Y-95103904D01*
X165461904Y-95103904D01*
X165576190Y-95065809D01*
X165652380Y-94989619D01*
X165690476Y-94913428D01*
X165728571Y-94761047D01*
X165728571Y-94646761D01*
X165690476Y-94494380D01*
X165652380Y-94418190D01*
X165576190Y-94342000D01*
X165461904Y-94303904D01*
X165385714Y-94303904D01*
X165271428Y-94342000D01*
X165233333Y-94380095D01*
X164471428Y-95103904D02*
X164928571Y-95103904D01*
X164700000Y-95103904D02*
X164700000Y-94303904D01*
X164776190Y-94418190D01*
X164852380Y-94494380D01*
X164928571Y-94532476D01*
%TO.C,R2*%
X158985904Y-90045666D02*
X158604952Y-89779000D01*
X158985904Y-89588523D02*
X158185904Y-89588523D01*
X158185904Y-89893285D01*
X158224000Y-89969476D01*
X158262095Y-90007571D01*
X158338285Y-90045666D01*
X158452571Y-90045666D01*
X158528761Y-90007571D01*
X158566857Y-89969476D01*
X158604952Y-89893285D01*
X158604952Y-89588523D01*
X158262095Y-90350428D02*
X158224000Y-90388523D01*
X158185904Y-90464714D01*
X158185904Y-90655190D01*
X158224000Y-90731380D01*
X158262095Y-90769476D01*
X158338285Y-90807571D01*
X158414476Y-90807571D01*
X158528761Y-90769476D01*
X158985904Y-90312333D01*
X158985904Y-90807571D01*
%TO.C,R3*%
X165207904Y-90045666D02*
X164826952Y-89779000D01*
X165207904Y-89588523D02*
X164407904Y-89588523D01*
X164407904Y-89893285D01*
X164446000Y-89969476D01*
X164484095Y-90007571D01*
X164560285Y-90045666D01*
X164674571Y-90045666D01*
X164750761Y-90007571D01*
X164788857Y-89969476D01*
X164826952Y-89893285D01*
X164826952Y-89588523D01*
X164407904Y-90312333D02*
X164407904Y-90807571D01*
X164712666Y-90540904D01*
X164712666Y-90655190D01*
X164750761Y-90731380D01*
X164788857Y-90769476D01*
X164865047Y-90807571D01*
X165055523Y-90807571D01*
X165131714Y-90769476D01*
X165169809Y-90731380D01*
X165207904Y-90655190D01*
X165207904Y-90426619D01*
X165169809Y-90350428D01*
X165131714Y-90312333D01*
%TD*%
%LPC*%
D13*
%TO.C,J1*%
X165920000Y-92620000D03*
X157380000Y-92620000D03*
X157380000Y-87890000D03*
X165920000Y-87890000D03*
D14*
X158850000Y-93770000D03*
X160450000Y-93770000D03*
X161250000Y-93770000D03*
X162050000Y-93770000D03*
X162850000Y-93770000D03*
X164450000Y-93770000D03*
X159250000Y-93070000D03*
X160050000Y-93070000D03*
X160850000Y-93070000D03*
X162450000Y-93070000D03*
X163250000Y-93070000D03*
X164050000Y-93070000D03*
X159650000Y-93770000D03*
X163650000Y-93770000D03*
%TD*%
%TO.C,R1*%
G36*
G01*
X169408000Y-96041738D02*
X169408000Y-96998262D01*
G75*
G02*
X169136262Y-97270000I-271738J0D01*
G01*
X168429738Y-97270000D01*
G75*
G02*
X168158000Y-96998262I0J271738D01*
G01*
X168158000Y-96041738D01*
G75*
G02*
X168429738Y-95770000I271738J0D01*
G01*
X169136262Y-95770000D01*
G75*
G02*
X169408000Y-96041738I0J-271738D01*
G01*
G37*
G36*
G01*
X167358000Y-96041738D02*
X167358000Y-96998262D01*
G75*
G02*
X167086262Y-97270000I-271738J0D01*
G01*
X166379738Y-97270000D01*
G75*
G02*
X166108000Y-96998262I0J271738D01*
G01*
X166108000Y-96041738D01*
G75*
G02*
X166379738Y-95770000I271738J0D01*
G01*
X167086262Y-95770000D01*
G75*
G02*
X167358000Y-96041738I0J-271738D01*
G01*
G37*
%TD*%
%TO.C,C1*%
G36*
G01*
X169426000Y-94136738D02*
X169426000Y-95093262D01*
G75*
G02*
X169154262Y-95365000I-271738J0D01*
G01*
X168447738Y-95365000D01*
G75*
G02*
X168176000Y-95093262I0J271738D01*
G01*
X168176000Y-94136738D01*
G75*
G02*
X168447738Y-93865000I271738J0D01*
G01*
X169154262Y-93865000D01*
G75*
G02*
X169426000Y-94136738I0J-271738D01*
G01*
G37*
G36*
G01*
X167376000Y-94136738D02*
X167376000Y-95093262D01*
G75*
G02*
X167104262Y-95365000I-271738J0D01*
G01*
X166397738Y-95365000D01*
G75*
G02*
X166126000Y-95093262I0J271738D01*
G01*
X166126000Y-94136738D01*
G75*
G02*
X166397738Y-93865000I271738J0D01*
G01*
X167104262Y-93865000D01*
G75*
G02*
X167376000Y-94136738I0J-271738D01*
G01*
G37*
%TD*%
%TO.C,R2*%
G36*
G01*
X159795738Y-90579000D02*
X160752262Y-90579000D01*
G75*
G02*
X161024000Y-90850738I0J-271738D01*
G01*
X161024000Y-91557262D01*
G75*
G02*
X160752262Y-91829000I-271738J0D01*
G01*
X159795738Y-91829000D01*
G75*
G02*
X159524000Y-91557262I0J271738D01*
G01*
X159524000Y-90850738D01*
G75*
G02*
X159795738Y-90579000I271738J0D01*
G01*
G37*
G36*
G01*
X159795738Y-88529000D02*
X160752262Y-88529000D01*
G75*
G02*
X161024000Y-88800738I0J-271738D01*
G01*
X161024000Y-89507262D01*
G75*
G02*
X160752262Y-89779000I-271738J0D01*
G01*
X159795738Y-89779000D01*
G75*
G02*
X159524000Y-89507262I0J271738D01*
G01*
X159524000Y-88800738D01*
G75*
G02*
X159795738Y-88529000I271738J0D01*
G01*
G37*
%TD*%
%TO.C,R3*%
G36*
G01*
X162589738Y-88529000D02*
X163546262Y-88529000D01*
G75*
G02*
X163818000Y-88800738I0J-271738D01*
G01*
X163818000Y-89507262D01*
G75*
G02*
X163546262Y-89779000I-271738J0D01*
G01*
X162589738Y-89779000D01*
G75*
G02*
X162318000Y-89507262I0J271738D01*
G01*
X162318000Y-88800738D01*
G75*
G02*
X162589738Y-88529000I271738J0D01*
G01*
G37*
G36*
G01*
X162589738Y-90579000D02*
X163546262Y-90579000D01*
G75*
G02*
X163818000Y-90850738I0J-271738D01*
G01*
X163818000Y-91557262D01*
G75*
G02*
X163546262Y-91829000I-271738J0D01*
G01*
X162589738Y-91829000D01*
G75*
G02*
X162318000Y-91557262I0J271738D01*
G01*
X162318000Y-90850738D01*
G75*
G02*
X162589738Y-90579000I271738J0D01*
G01*
G37*
%TD*%
D15*
%TO.C,J2*%
X163576000Y-96901000D03*
X162306000Y-96901000D03*
X161036000Y-96901000D03*
X159766000Y-96901000D03*
%TD*%
M02*
