%TF.GenerationSoftware,KiCad,Pcbnew,(5.1.6)-1*%
%TF.CreationDate,2022-01-04T17:41:04+01:00*%
%TF.ProjectId,headphone_plug,68656164-7068-46f6-9e65-5f706c75672e,rev?*%
%TF.SameCoordinates,Original*%
%TF.FileFunction,Copper,L2,Bot*%
%TF.FilePolarity,Positive*%
%FSLAX46Y46*%
G04 Gerber Fmt 4.6, Leading zero omitted, Abs format (unit mm)*
G04 Created by KiCad (PCBNEW (5.1.6)-1) date 2022-01-04 17:41:04*
%MOMM*%
%LPD*%
G01*
G04 APERTURE LIST*
%TA.AperFunction,ComponentPad*%
%ADD10O,1.200000X1.800000*%
%TD*%
%TA.AperFunction,ComponentPad*%
%ADD11C,0.650000*%
%TD*%
%TA.AperFunction,SMDPad,CuDef*%
%ADD12R,0.762000X1.524000*%
%TD*%
%TA.AperFunction,ViaPad*%
%ADD13C,0.400000*%
%TD*%
%TA.AperFunction,Conductor*%
%ADD14C,0.254000*%
%TD*%
%TA.AperFunction,Conductor*%
%ADD15C,0.127000*%
%TD*%
G04 APERTURE END LIST*
D10*
%TO.P,J1,S1*%
%TO.N,Net-(C1-Pad2)*%
X165920000Y-92620000D03*
X157380000Y-92620000D03*
X157380000Y-87890000D03*
X165920000Y-87890000D03*
D11*
%TO.P,J1,B1*%
%TO.N,GND*%
X158850000Y-93770000D03*
%TO.P,J1,B4*%
%TO.N,+5V*%
X160450000Y-93770000D03*
%TO.P,J1,B6*%
%TO.N,UD+*%
X161250000Y-93770000D03*
%TO.P,J1,B7*%
%TO.N,UD-*%
X162050000Y-93770000D03*
%TO.P,J1,B9*%
%TO.N,+5V*%
X162850000Y-93770000D03*
%TO.P,J1,B12*%
%TO.N,GND*%
X164450000Y-93770000D03*
%TO.P,J1,B2*%
%TO.N,N/C*%
X159250000Y-93070000D03*
%TO.P,J1,B3*%
X160050000Y-93070000D03*
%TO.P,J1,B5*%
%TO.N,Net-(J1-PadB5)*%
X160850000Y-93070000D03*
%TO.P,J1,B8*%
%TO.N,Net-(J1-PadB8)*%
X162450000Y-93070000D03*
%TO.P,J1,B10*%
%TO.N,N/C*%
X163250000Y-93070000D03*
%TO.P,J1,B11*%
X164050000Y-93070000D03*
%TO.P,J1,S1*%
%TO.N,Net-(C1-Pad2)*%
X159650000Y-93770000D03*
X163650000Y-93770000D03*
%TD*%
%TO.P,R1,1*%
%TO.N,GND*%
%TA.AperFunction,SMDPad,CuDef*%
G36*
G01*
X169358000Y-96069999D02*
X169358000Y-96970001D01*
G75*
G02*
X169108001Y-97220000I-249999J0D01*
G01*
X168457999Y-97220000D01*
G75*
G02*
X168208000Y-96970001I0J249999D01*
G01*
X168208000Y-96069999D01*
G75*
G02*
X168457999Y-95820000I249999J0D01*
G01*
X169108001Y-95820000D01*
G75*
G02*
X169358000Y-96069999I0J-249999D01*
G01*
G37*
%TD.AperFunction*%
%TO.P,R1,2*%
%TO.N,Net-(C1-Pad2)*%
%TA.AperFunction,SMDPad,CuDef*%
G36*
G01*
X167308000Y-96069999D02*
X167308000Y-96970001D01*
G75*
G02*
X167058001Y-97220000I-249999J0D01*
G01*
X166407999Y-97220000D01*
G75*
G02*
X166158000Y-96970001I0J249999D01*
G01*
X166158000Y-96069999D01*
G75*
G02*
X166407999Y-95820000I249999J0D01*
G01*
X167058001Y-95820000D01*
G75*
G02*
X167308000Y-96069999I0J-249999D01*
G01*
G37*
%TD.AperFunction*%
%TD*%
%TO.P,C1,1*%
%TO.N,GND*%
%TA.AperFunction,SMDPad,CuDef*%
G36*
G01*
X169376000Y-94164999D02*
X169376000Y-95065001D01*
G75*
G02*
X169126001Y-95315000I-249999J0D01*
G01*
X168475999Y-95315000D01*
G75*
G02*
X168226000Y-95065001I0J249999D01*
G01*
X168226000Y-94164999D01*
G75*
G02*
X168475999Y-93915000I249999J0D01*
G01*
X169126001Y-93915000D01*
G75*
G02*
X169376000Y-94164999I0J-249999D01*
G01*
G37*
%TD.AperFunction*%
%TO.P,C1,2*%
%TO.N,Net-(C1-Pad2)*%
%TA.AperFunction,SMDPad,CuDef*%
G36*
G01*
X167326000Y-94164999D02*
X167326000Y-95065001D01*
G75*
G02*
X167076001Y-95315000I-249999J0D01*
G01*
X166425999Y-95315000D01*
G75*
G02*
X166176000Y-95065001I0J249999D01*
G01*
X166176000Y-94164999D01*
G75*
G02*
X166425999Y-93915000I249999J0D01*
G01*
X167076001Y-93915000D01*
G75*
G02*
X167326000Y-94164999I0J-249999D01*
G01*
G37*
%TD.AperFunction*%
%TD*%
%TO.P,R2,2*%
%TO.N,Net-(J1-PadB5)*%
%TA.AperFunction,SMDPad,CuDef*%
G36*
G01*
X159823999Y-90629000D02*
X160724001Y-90629000D01*
G75*
G02*
X160974000Y-90878999I0J-249999D01*
G01*
X160974000Y-91529001D01*
G75*
G02*
X160724001Y-91779000I-249999J0D01*
G01*
X159823999Y-91779000D01*
G75*
G02*
X159574000Y-91529001I0J249999D01*
G01*
X159574000Y-90878999D01*
G75*
G02*
X159823999Y-90629000I249999J0D01*
G01*
G37*
%TD.AperFunction*%
%TO.P,R2,1*%
%TO.N,GND*%
%TA.AperFunction,SMDPad,CuDef*%
G36*
G01*
X159823999Y-88579000D02*
X160724001Y-88579000D01*
G75*
G02*
X160974000Y-88828999I0J-249999D01*
G01*
X160974000Y-89479001D01*
G75*
G02*
X160724001Y-89729000I-249999J0D01*
G01*
X159823999Y-89729000D01*
G75*
G02*
X159574000Y-89479001I0J249999D01*
G01*
X159574000Y-88828999D01*
G75*
G02*
X159823999Y-88579000I249999J0D01*
G01*
G37*
%TD.AperFunction*%
%TD*%
%TO.P,R3,1*%
%TO.N,GND*%
%TA.AperFunction,SMDPad,CuDef*%
G36*
G01*
X162617999Y-88579000D02*
X163518001Y-88579000D01*
G75*
G02*
X163768000Y-88828999I0J-249999D01*
G01*
X163768000Y-89479001D01*
G75*
G02*
X163518001Y-89729000I-249999J0D01*
G01*
X162617999Y-89729000D01*
G75*
G02*
X162368000Y-89479001I0J249999D01*
G01*
X162368000Y-88828999D01*
G75*
G02*
X162617999Y-88579000I249999J0D01*
G01*
G37*
%TD.AperFunction*%
%TO.P,R3,2*%
%TO.N,Net-(J1-PadA5)*%
%TA.AperFunction,SMDPad,CuDef*%
G36*
G01*
X162617999Y-90629000D02*
X163518001Y-90629000D01*
G75*
G02*
X163768000Y-90878999I0J-249999D01*
G01*
X163768000Y-91529001D01*
G75*
G02*
X163518001Y-91779000I-249999J0D01*
G01*
X162617999Y-91779000D01*
G75*
G02*
X162368000Y-91529001I0J249999D01*
G01*
X162368000Y-90878999D01*
G75*
G02*
X162617999Y-90629000I249999J0D01*
G01*
G37*
%TD.AperFunction*%
%TD*%
D12*
%TO.P,J2,1*%
%TO.N,GND*%
X163576000Y-96901000D03*
%TO.P,J2,2*%
%TO.N,UD+*%
X162306000Y-96901000D03*
%TO.P,J2,3*%
%TO.N,UD-*%
X161036000Y-96901000D03*
%TO.P,J2,4*%
%TO.N,+5V*%
X159766000Y-96901000D03*
%TD*%
D13*
%TO.N,GND*%
X163830000Y-87630000D03*
X162560000Y-87630000D03*
X161290000Y-87630000D03*
X160020000Y-87630000D03*
X158750000Y-87630000D03*
X158750000Y-88900000D03*
X158750000Y-91440000D03*
X164909500Y-90170000D03*
X170053000Y-92710000D03*
X170053000Y-93980000D03*
X170053000Y-95250000D03*
X154940000Y-93980000D03*
X156210000Y-95250000D03*
X157480000Y-96520000D03*
X156210000Y-96520000D03*
X165100000Y-96520000D03*
%TO.N,+5V*%
X159766000Y-96901000D03*
%TO.N,Net-(J1-PadA5)*%
X162400000Y-94920000D03*
%TO.N,UD+*%
X162306000Y-96901000D03*
%TO.N,UD-*%
X161036000Y-96901000D03*
X161400000Y-94920000D03*
%TD*%
D14*
%TO.N,GND*%
X164450000Y-93770000D02*
X164846000Y-93374000D01*
X164846000Y-93374000D02*
X164846000Y-92075000D01*
X164846000Y-92075000D02*
X164846000Y-91059000D01*
X158850000Y-93770000D02*
X158496000Y-93416000D01*
X158496000Y-93416000D02*
X158496000Y-91567000D01*
%TO.N,Net-(C1-Pad2)*%
X165920000Y-94049000D02*
X165920000Y-92620000D01*
X163957000Y-94615000D02*
X165354000Y-94615000D01*
X163650000Y-94308000D02*
X163957000Y-94615000D01*
X165354000Y-94615000D02*
X165920000Y-94049000D01*
X163650000Y-93770000D02*
X163650000Y-94308000D01*
X166733000Y-94633000D02*
X166751000Y-94615000D01*
X166733000Y-96520000D02*
X166733000Y-94633000D01*
X166185000Y-94049000D02*
X166751000Y-94615000D01*
X165920000Y-94049000D02*
X166185000Y-94049000D01*
X157380000Y-93626000D02*
X157380000Y-92620000D01*
X158369000Y-94615000D02*
X157380000Y-93626000D01*
X159385000Y-94615000D02*
X158369000Y-94615000D01*
X159650000Y-93770000D02*
X159650000Y-94350000D01*
X159650000Y-94350000D02*
X159385000Y-94615000D01*
%TO.N,+5V*%
X163068000Y-93988000D02*
X162850000Y-93770000D01*
X159766000Y-96139000D02*
X160147000Y-95758000D01*
X160147000Y-95758000D02*
X162306000Y-95758000D01*
X159766000Y-96901000D02*
X159766000Y-96139000D01*
X163068000Y-94996000D02*
X163068000Y-93988000D01*
X162306000Y-95758000D02*
X163068000Y-94996000D01*
%TO.N,Net-(J1-PadA5)*%
X161367990Y-90374990D02*
X162197000Y-91204000D01*
X162197000Y-91204000D02*
X163068000Y-91204000D01*
X158037010Y-90374990D02*
X161367990Y-90374990D01*
X161945999Y-95374001D02*
X158366001Y-95374001D01*
X158366001Y-95374001D02*
X156337000Y-93345000D01*
X156337000Y-93345000D02*
X156337000Y-92075000D01*
X162400000Y-94920000D02*
X161945999Y-95374001D01*
X156337000Y-92075000D02*
X158037010Y-90374990D01*
D15*
%TO.N,UD-*%
X162050000Y-93770000D02*
X161417000Y-94403000D01*
X161400000Y-94420000D02*
X161417000Y-94403000D01*
X161400000Y-94920000D02*
X161400000Y-94420000D01*
D14*
%TO.N,Net-(J1-PadB5)*%
X160274000Y-91204000D02*
X160274000Y-92075000D01*
X160850000Y-92651000D02*
X160850000Y-93070000D01*
X160274000Y-92075000D02*
X160850000Y-92651000D01*
%TD*%
%TO.N,GND*%
G36*
X154052900Y-92738235D02*
G01*
X154112546Y-92762333D01*
X154171887Y-92787278D01*
X154181377Y-92790143D01*
X154485730Y-92879719D01*
X154548934Y-92891776D01*
X154611978Y-92904717D01*
X154621842Y-92905684D01*
X154621844Y-92905684D01*
X154937801Y-92934438D01*
X155002116Y-92933989D01*
X155066497Y-92934438D01*
X155076362Y-92933471D01*
X155391886Y-92900309D01*
X155454917Y-92887371D01*
X155518135Y-92875311D01*
X155527619Y-92872447D01*
X155527623Y-92872446D01*
X155527626Y-92872445D01*
X155575000Y-92857780D01*
X155575000Y-93307576D01*
X155571314Y-93345000D01*
X155575000Y-93382423D01*
X155575000Y-93382425D01*
X155586026Y-93494377D01*
X155629598Y-93638014D01*
X155643181Y-93663426D01*
X155700355Y-93770392D01*
X155719719Y-93793987D01*
X155795578Y-93886422D01*
X155824654Y-93910284D01*
X157800717Y-95886347D01*
X157824579Y-95915423D01*
X157889766Y-95968920D01*
X157940608Y-96010646D01*
X157960887Y-96021485D01*
X158072986Y-96081403D01*
X158216623Y-96124975D01*
X158328575Y-96136001D01*
X158328578Y-96136001D01*
X158366001Y-96139687D01*
X158403424Y-96136001D01*
X158747223Y-96136001D01*
X158746928Y-96139000D01*
X158746928Y-97196050D01*
X156285061Y-97196050D01*
X155900031Y-97039429D01*
X155571842Y-96685453D01*
X155559339Y-96655521D01*
X155418696Y-96318724D01*
X155001902Y-95317316D01*
X154357211Y-93764518D01*
X153897743Y-92657121D01*
X154052900Y-92738235D01*
G37*
X154052900Y-92738235D02*
X154112546Y-92762333D01*
X154171887Y-92787278D01*
X154181377Y-92790143D01*
X154485730Y-92879719D01*
X154548934Y-92891776D01*
X154611978Y-92904717D01*
X154621842Y-92905684D01*
X154621844Y-92905684D01*
X154937801Y-92934438D01*
X155002116Y-92933989D01*
X155066497Y-92934438D01*
X155076362Y-92933471D01*
X155391886Y-92900309D01*
X155454917Y-92887371D01*
X155518135Y-92875311D01*
X155527619Y-92872447D01*
X155527623Y-92872446D01*
X155527626Y-92872445D01*
X155575000Y-92857780D01*
X155575000Y-93307576D01*
X155571314Y-93345000D01*
X155575000Y-93382423D01*
X155575000Y-93382425D01*
X155586026Y-93494377D01*
X155629598Y-93638014D01*
X155643181Y-93663426D01*
X155700355Y-93770392D01*
X155719719Y-93793987D01*
X155795578Y-93886422D01*
X155824654Y-93910284D01*
X157800717Y-95886347D01*
X157824579Y-95915423D01*
X157889766Y-95968920D01*
X157940608Y-96010646D01*
X157960887Y-96021485D01*
X158072986Y-96081403D01*
X158216623Y-96124975D01*
X158328575Y-96136001D01*
X158328578Y-96136001D01*
X158366001Y-96139687D01*
X158403424Y-96136001D01*
X158747223Y-96136001D01*
X158746928Y-96139000D01*
X158746928Y-97196050D01*
X156285061Y-97196050D01*
X155900031Y-97039429D01*
X155571842Y-96685453D01*
X155559339Y-96655521D01*
X155418696Y-96318724D01*
X155001902Y-95317316D01*
X154357211Y-93764518D01*
X153897743Y-92657121D01*
X154052900Y-92738235D01*
G36*
X165605528Y-95404851D02*
G01*
X165686395Y-95556142D01*
X165669595Y-95576613D01*
X165587528Y-95730149D01*
X165536992Y-95896745D01*
X165519928Y-96069999D01*
X165519928Y-96970001D01*
X165536992Y-97143255D01*
X165553007Y-97196050D01*
X164592060Y-97196050D01*
X164592000Y-97186750D01*
X164433250Y-97028000D01*
X163703000Y-97028000D01*
X163703000Y-97048000D01*
X163449000Y-97048000D01*
X163449000Y-97028000D01*
X163429000Y-97028000D01*
X163429000Y-96774000D01*
X163449000Y-96774000D01*
X163449000Y-96754000D01*
X163703000Y-96754000D01*
X163703000Y-96774000D01*
X164433250Y-96774000D01*
X164592000Y-96615250D01*
X164595072Y-96139000D01*
X164582812Y-96014518D01*
X164546502Y-95894820D01*
X164487537Y-95784506D01*
X164408185Y-95687815D01*
X164311494Y-95608463D01*
X164201180Y-95549498D01*
X164081482Y-95513188D01*
X163957000Y-95500928D01*
X163861750Y-95504000D01*
X163703002Y-95662748D01*
X163703002Y-95504000D01*
X163636851Y-95504000D01*
X163668442Y-95465506D01*
X163704645Y-95421393D01*
X163744501Y-95346826D01*
X163807622Y-95365974D01*
X163919574Y-95377000D01*
X163919577Y-95377000D01*
X163957000Y-95380686D01*
X163994423Y-95377000D01*
X165316577Y-95377000D01*
X165354000Y-95380686D01*
X165391423Y-95377000D01*
X165391426Y-95377000D01*
X165503378Y-95365974D01*
X165586121Y-95340874D01*
X165605528Y-95404851D01*
G37*
X165605528Y-95404851D02*
X165686395Y-95556142D01*
X165669595Y-95576613D01*
X165587528Y-95730149D01*
X165536992Y-95896745D01*
X165519928Y-96069999D01*
X165519928Y-96970001D01*
X165536992Y-97143255D01*
X165553007Y-97196050D01*
X164592060Y-97196050D01*
X164592000Y-97186750D01*
X164433250Y-97028000D01*
X163703000Y-97028000D01*
X163703000Y-97048000D01*
X163449000Y-97048000D01*
X163449000Y-97028000D01*
X163429000Y-97028000D01*
X163429000Y-96774000D01*
X163449000Y-96774000D01*
X163449000Y-96754000D01*
X163703000Y-96754000D01*
X163703000Y-96774000D01*
X164433250Y-96774000D01*
X164592000Y-96615250D01*
X164595072Y-96139000D01*
X164582812Y-96014518D01*
X164546502Y-95894820D01*
X164487537Y-95784506D01*
X164408185Y-95687815D01*
X164311494Y-95608463D01*
X164201180Y-95549498D01*
X164081482Y-95513188D01*
X163957000Y-95500928D01*
X163861750Y-95504000D01*
X163703002Y-95662748D01*
X163703002Y-95504000D01*
X163636851Y-95504000D01*
X163668442Y-95465506D01*
X163704645Y-95421393D01*
X163744501Y-95346826D01*
X163807622Y-95365974D01*
X163919574Y-95377000D01*
X163919577Y-95377000D01*
X163957000Y-95380686D01*
X163994423Y-95377000D01*
X165316577Y-95377000D01*
X165354000Y-95380686D01*
X165391423Y-95377000D01*
X165391426Y-95377000D01*
X165503378Y-95365974D01*
X165586121Y-95340874D01*
X165605528Y-95404851D01*
G36*
X170226619Y-95344281D02*
G01*
X170226618Y-95344291D01*
X170226618Y-95529256D01*
X170081599Y-96062276D01*
X169993301Y-96193659D01*
X169996072Y-95820000D01*
X169983812Y-95695518D01*
X169950799Y-95586688D01*
X169965502Y-95559180D01*
X170001812Y-95439482D01*
X170014072Y-95315000D01*
X170011000Y-94900750D01*
X169852250Y-94742000D01*
X168928000Y-94742000D01*
X168928000Y-95325750D01*
X168910000Y-95343750D01*
X168910000Y-96393000D01*
X168930000Y-96393000D01*
X168930000Y-96647000D01*
X168910000Y-96647000D01*
X168910000Y-96667000D01*
X168656000Y-96667000D01*
X168656000Y-96647000D01*
X168636000Y-96647000D01*
X168636000Y-96393000D01*
X168656000Y-96393000D01*
X168656000Y-95809250D01*
X168674000Y-95791250D01*
X168674000Y-94742000D01*
X168654000Y-94742000D01*
X168654000Y-94488000D01*
X168674000Y-94488000D01*
X168674000Y-93438750D01*
X168928000Y-93438750D01*
X168928000Y-94488000D01*
X169852250Y-94488000D01*
X170011000Y-94329250D01*
X170014072Y-93915000D01*
X170001812Y-93790518D01*
X169965502Y-93670820D01*
X169906537Y-93560506D01*
X169827185Y-93463815D01*
X169730494Y-93384463D01*
X169620180Y-93325498D01*
X169500482Y-93289188D01*
X169376000Y-93276928D01*
X169086750Y-93280000D01*
X168928000Y-93438750D01*
X168674000Y-93438750D01*
X168515250Y-93280000D01*
X168226000Y-93276928D01*
X168101518Y-93289188D01*
X167981820Y-93325498D01*
X167871506Y-93384463D01*
X167774815Y-93463815D01*
X167709342Y-93543594D01*
X167703962Y-93537038D01*
X167569387Y-93426595D01*
X167415851Y-93344528D01*
X167249255Y-93293992D01*
X167101535Y-93279443D01*
X167137130Y-93162102D01*
X167155000Y-92980665D01*
X167155000Y-92616478D01*
X167387900Y-92738235D01*
X167447546Y-92762333D01*
X167506887Y-92787278D01*
X167516377Y-92790143D01*
X167820730Y-92879719D01*
X167883934Y-92891776D01*
X167946978Y-92904717D01*
X167956842Y-92905684D01*
X167956844Y-92905684D01*
X168272801Y-92934438D01*
X168337116Y-92933989D01*
X168401497Y-92934438D01*
X168411362Y-92933471D01*
X168726886Y-92900309D01*
X168789917Y-92887371D01*
X168853135Y-92875311D01*
X168862619Y-92872447D01*
X168862623Y-92872446D01*
X168862626Y-92872445D01*
X169165699Y-92778628D01*
X169225000Y-92753700D01*
X169284686Y-92729585D01*
X169293439Y-92724931D01*
X169572518Y-92574033D01*
X169625852Y-92538059D01*
X169679713Y-92502813D01*
X169687395Y-92496547D01*
X169931849Y-92294318D01*
X169977203Y-92248646D01*
X170023169Y-92203633D01*
X170029488Y-92195994D01*
X170226618Y-91954289D01*
X170226619Y-95344281D01*
G37*
X170226619Y-95344281D02*
X170226618Y-95344291D01*
X170226618Y-95529256D01*
X170081599Y-96062276D01*
X169993301Y-96193659D01*
X169996072Y-95820000D01*
X169983812Y-95695518D01*
X169950799Y-95586688D01*
X169965502Y-95559180D01*
X170001812Y-95439482D01*
X170014072Y-95315000D01*
X170011000Y-94900750D01*
X169852250Y-94742000D01*
X168928000Y-94742000D01*
X168928000Y-95325750D01*
X168910000Y-95343750D01*
X168910000Y-96393000D01*
X168930000Y-96393000D01*
X168930000Y-96647000D01*
X168910000Y-96647000D01*
X168910000Y-96667000D01*
X168656000Y-96667000D01*
X168656000Y-96647000D01*
X168636000Y-96647000D01*
X168636000Y-96393000D01*
X168656000Y-96393000D01*
X168656000Y-95809250D01*
X168674000Y-95791250D01*
X168674000Y-94742000D01*
X168654000Y-94742000D01*
X168654000Y-94488000D01*
X168674000Y-94488000D01*
X168674000Y-93438750D01*
X168928000Y-93438750D01*
X168928000Y-94488000D01*
X169852250Y-94488000D01*
X170011000Y-94329250D01*
X170014072Y-93915000D01*
X170001812Y-93790518D01*
X169965502Y-93670820D01*
X169906537Y-93560506D01*
X169827185Y-93463815D01*
X169730494Y-93384463D01*
X169620180Y-93325498D01*
X169500482Y-93289188D01*
X169376000Y-93276928D01*
X169086750Y-93280000D01*
X168928000Y-93438750D01*
X168674000Y-93438750D01*
X168515250Y-93280000D01*
X168226000Y-93276928D01*
X168101518Y-93289188D01*
X167981820Y-93325498D01*
X167871506Y-93384463D01*
X167774815Y-93463815D01*
X167709342Y-93543594D01*
X167703962Y-93537038D01*
X167569387Y-93426595D01*
X167415851Y-93344528D01*
X167249255Y-93293992D01*
X167101535Y-93279443D01*
X167137130Y-93162102D01*
X167155000Y-92980665D01*
X167155000Y-92616478D01*
X167387900Y-92738235D01*
X167447546Y-92762333D01*
X167506887Y-92787278D01*
X167516377Y-92790143D01*
X167820730Y-92879719D01*
X167883934Y-92891776D01*
X167946978Y-92904717D01*
X167956842Y-92905684D01*
X167956844Y-92905684D01*
X168272801Y-92934438D01*
X168337116Y-92933989D01*
X168401497Y-92934438D01*
X168411362Y-92933471D01*
X168726886Y-92900309D01*
X168789917Y-92887371D01*
X168853135Y-92875311D01*
X168862619Y-92872447D01*
X168862623Y-92872446D01*
X168862626Y-92872445D01*
X169165699Y-92778628D01*
X169225000Y-92753700D01*
X169284686Y-92729585D01*
X169293439Y-92724931D01*
X169572518Y-92574033D01*
X169625852Y-92538059D01*
X169679713Y-92502813D01*
X169687395Y-92496547D01*
X169931849Y-92294318D01*
X169977203Y-92248646D01*
X170023169Y-92203633D01*
X170029488Y-92195994D01*
X170226618Y-91954289D01*
X170226619Y-95344281D01*
G36*
X164948628Y-86508521D02*
G01*
X164949392Y-86508596D01*
X164982025Y-86508596D01*
X165006197Y-86533145D01*
X165010929Y-86536360D01*
X165015010Y-86540371D01*
X165067366Y-86574704D01*
X165090791Y-86590619D01*
X165095771Y-86593331D01*
X165129130Y-86615206D01*
X165150518Y-86623849D01*
X165042499Y-86712498D01*
X164888168Y-86900551D01*
X164773489Y-87115099D01*
X164702870Y-87347898D01*
X164685000Y-87529335D01*
X164685000Y-88250664D01*
X164702870Y-88432101D01*
X164773489Y-88664900D01*
X164888167Y-88879448D01*
X165042498Y-89067502D01*
X165230551Y-89221833D01*
X165445099Y-89336511D01*
X165677898Y-89407130D01*
X165920000Y-89430975D01*
X165990200Y-89424061D01*
X165990201Y-90636677D01*
X165993746Y-90672671D01*
X165993746Y-90693782D01*
X165994783Y-90703640D01*
X166030148Y-91018924D01*
X166043520Y-91081836D01*
X166045410Y-91091377D01*
X165920000Y-91079025D01*
X165677899Y-91102870D01*
X165445100Y-91173489D01*
X165230552Y-91288167D01*
X165042499Y-91442498D01*
X164888168Y-91630551D01*
X164773489Y-91845099D01*
X164702870Y-92077898D01*
X164685000Y-92259335D01*
X164685000Y-92347355D01*
X164661964Y-92324319D01*
X164504731Y-92219259D01*
X164330022Y-92146892D01*
X164178896Y-92116831D01*
X164256405Y-92022387D01*
X164338472Y-91868851D01*
X164389008Y-91702255D01*
X164406072Y-91529001D01*
X164406072Y-90878999D01*
X164389008Y-90705745D01*
X164338472Y-90539149D01*
X164256405Y-90385613D01*
X164145962Y-90251038D01*
X164139406Y-90245658D01*
X164219185Y-90180185D01*
X164298537Y-90083494D01*
X164357502Y-89973180D01*
X164393812Y-89853482D01*
X164406072Y-89729000D01*
X164403000Y-89439750D01*
X164244250Y-89281000D01*
X163195000Y-89281000D01*
X163195000Y-89301000D01*
X162941000Y-89301000D01*
X162941000Y-89281000D01*
X161891750Y-89281000D01*
X161733000Y-89439750D01*
X161730187Y-89704567D01*
X161661005Y-89667588D01*
X161611260Y-89652498D01*
X161609000Y-89439750D01*
X161450250Y-89281000D01*
X160401000Y-89281000D01*
X160401000Y-89301000D01*
X160147000Y-89301000D01*
X160147000Y-89281000D01*
X159097750Y-89281000D01*
X158939000Y-89439750D01*
X158937160Y-89612990D01*
X158074432Y-89612990D01*
X158037009Y-89609304D01*
X157999586Y-89612990D01*
X157999584Y-89612990D01*
X157887632Y-89624016D01*
X157743995Y-89667588D01*
X157611618Y-89738345D01*
X157495588Y-89833568D01*
X157471731Y-89862638D01*
X157326400Y-90007969D01*
X157326400Y-89425696D01*
X157380000Y-89430975D01*
X157622101Y-89407130D01*
X157854900Y-89336511D01*
X158069448Y-89221833D01*
X158257502Y-89067502D01*
X158411833Y-88879449D01*
X158526511Y-88664901D01*
X158552568Y-88579000D01*
X158935928Y-88579000D01*
X158939000Y-88868250D01*
X159097750Y-89027000D01*
X160147000Y-89027000D01*
X160147000Y-88102750D01*
X160401000Y-88102750D01*
X160401000Y-89027000D01*
X161450250Y-89027000D01*
X161609000Y-88868250D01*
X161612072Y-88579000D01*
X161729928Y-88579000D01*
X161733000Y-88868250D01*
X161891750Y-89027000D01*
X162941000Y-89027000D01*
X162941000Y-88102750D01*
X163195000Y-88102750D01*
X163195000Y-89027000D01*
X164244250Y-89027000D01*
X164403000Y-88868250D01*
X164406072Y-88579000D01*
X164393812Y-88454518D01*
X164357502Y-88334820D01*
X164298537Y-88224506D01*
X164219185Y-88127815D01*
X164122494Y-88048463D01*
X164012180Y-87989498D01*
X163892482Y-87953188D01*
X163768000Y-87940928D01*
X163353750Y-87944000D01*
X163195000Y-88102750D01*
X162941000Y-88102750D01*
X162782250Y-87944000D01*
X162368000Y-87940928D01*
X162243518Y-87953188D01*
X162123820Y-87989498D01*
X162013506Y-88048463D01*
X161916815Y-88127815D01*
X161837463Y-88224506D01*
X161778498Y-88334820D01*
X161742188Y-88454518D01*
X161729928Y-88579000D01*
X161612072Y-88579000D01*
X161599812Y-88454518D01*
X161563502Y-88334820D01*
X161504537Y-88224506D01*
X161425185Y-88127815D01*
X161328494Y-88048463D01*
X161218180Y-87989498D01*
X161098482Y-87953188D01*
X160974000Y-87940928D01*
X160559750Y-87944000D01*
X160401000Y-88102750D01*
X160147000Y-88102750D01*
X159988250Y-87944000D01*
X159574000Y-87940928D01*
X159449518Y-87953188D01*
X159329820Y-87989498D01*
X159219506Y-88048463D01*
X159122815Y-88127815D01*
X159043463Y-88224506D01*
X158984498Y-88334820D01*
X158948188Y-88454518D01*
X158935928Y-88579000D01*
X158552568Y-88579000D01*
X158597130Y-88432102D01*
X158615000Y-88250665D01*
X158615000Y-87529336D01*
X158597130Y-87347899D01*
X158526511Y-87115099D01*
X158411833Y-86900551D01*
X158257502Y-86712498D01*
X158124785Y-86603580D01*
X158153801Y-86585370D01*
X158168145Y-86577354D01*
X158182607Y-86567294D01*
X158226504Y-86539746D01*
X158238527Y-86528392D01*
X158252100Y-86518950D01*
X158260275Y-86510463D01*
X158265396Y-86510432D01*
X159061884Y-86510432D01*
X159062421Y-86510484D01*
X159095756Y-86510432D01*
X159129408Y-86510432D01*
X159129950Y-86510379D01*
X160272747Y-86508596D01*
X161588972Y-86508596D01*
X161589435Y-86508641D01*
X161622539Y-86508596D01*
X161656560Y-86508596D01*
X161657036Y-86508549D01*
X162973201Y-86506760D01*
X164149084Y-86506760D01*
X164948628Y-86508521D01*
G37*
X164948628Y-86508521D02*
X164949392Y-86508596D01*
X164982025Y-86508596D01*
X165006197Y-86533145D01*
X165010929Y-86536360D01*
X165015010Y-86540371D01*
X165067366Y-86574704D01*
X165090791Y-86590619D01*
X165095771Y-86593331D01*
X165129130Y-86615206D01*
X165150518Y-86623849D01*
X165042499Y-86712498D01*
X164888168Y-86900551D01*
X164773489Y-87115099D01*
X164702870Y-87347898D01*
X164685000Y-87529335D01*
X164685000Y-88250664D01*
X164702870Y-88432101D01*
X164773489Y-88664900D01*
X164888167Y-88879448D01*
X165042498Y-89067502D01*
X165230551Y-89221833D01*
X165445099Y-89336511D01*
X165677898Y-89407130D01*
X165920000Y-89430975D01*
X165990200Y-89424061D01*
X165990201Y-90636677D01*
X165993746Y-90672671D01*
X165993746Y-90693782D01*
X165994783Y-90703640D01*
X166030148Y-91018924D01*
X166043520Y-91081836D01*
X166045410Y-91091377D01*
X165920000Y-91079025D01*
X165677899Y-91102870D01*
X165445100Y-91173489D01*
X165230552Y-91288167D01*
X165042499Y-91442498D01*
X164888168Y-91630551D01*
X164773489Y-91845099D01*
X164702870Y-92077898D01*
X164685000Y-92259335D01*
X164685000Y-92347355D01*
X164661964Y-92324319D01*
X164504731Y-92219259D01*
X164330022Y-92146892D01*
X164178896Y-92116831D01*
X164256405Y-92022387D01*
X164338472Y-91868851D01*
X164389008Y-91702255D01*
X164406072Y-91529001D01*
X164406072Y-90878999D01*
X164389008Y-90705745D01*
X164338472Y-90539149D01*
X164256405Y-90385613D01*
X164145962Y-90251038D01*
X164139406Y-90245658D01*
X164219185Y-90180185D01*
X164298537Y-90083494D01*
X164357502Y-89973180D01*
X164393812Y-89853482D01*
X164406072Y-89729000D01*
X164403000Y-89439750D01*
X164244250Y-89281000D01*
X163195000Y-89281000D01*
X163195000Y-89301000D01*
X162941000Y-89301000D01*
X162941000Y-89281000D01*
X161891750Y-89281000D01*
X161733000Y-89439750D01*
X161730187Y-89704567D01*
X161661005Y-89667588D01*
X161611260Y-89652498D01*
X161609000Y-89439750D01*
X161450250Y-89281000D01*
X160401000Y-89281000D01*
X160401000Y-89301000D01*
X160147000Y-89301000D01*
X160147000Y-89281000D01*
X159097750Y-89281000D01*
X158939000Y-89439750D01*
X158937160Y-89612990D01*
X158074432Y-89612990D01*
X158037009Y-89609304D01*
X157999586Y-89612990D01*
X157999584Y-89612990D01*
X157887632Y-89624016D01*
X157743995Y-89667588D01*
X157611618Y-89738345D01*
X157495588Y-89833568D01*
X157471731Y-89862638D01*
X157326400Y-90007969D01*
X157326400Y-89425696D01*
X157380000Y-89430975D01*
X157622101Y-89407130D01*
X157854900Y-89336511D01*
X158069448Y-89221833D01*
X158257502Y-89067502D01*
X158411833Y-88879449D01*
X158526511Y-88664901D01*
X158552568Y-88579000D01*
X158935928Y-88579000D01*
X158939000Y-88868250D01*
X159097750Y-89027000D01*
X160147000Y-89027000D01*
X160147000Y-88102750D01*
X160401000Y-88102750D01*
X160401000Y-89027000D01*
X161450250Y-89027000D01*
X161609000Y-88868250D01*
X161612072Y-88579000D01*
X161729928Y-88579000D01*
X161733000Y-88868250D01*
X161891750Y-89027000D01*
X162941000Y-89027000D01*
X162941000Y-88102750D01*
X163195000Y-88102750D01*
X163195000Y-89027000D01*
X164244250Y-89027000D01*
X164403000Y-88868250D01*
X164406072Y-88579000D01*
X164393812Y-88454518D01*
X164357502Y-88334820D01*
X164298537Y-88224506D01*
X164219185Y-88127815D01*
X164122494Y-88048463D01*
X164012180Y-87989498D01*
X163892482Y-87953188D01*
X163768000Y-87940928D01*
X163353750Y-87944000D01*
X163195000Y-88102750D01*
X162941000Y-88102750D01*
X162782250Y-87944000D01*
X162368000Y-87940928D01*
X162243518Y-87953188D01*
X162123820Y-87989498D01*
X162013506Y-88048463D01*
X161916815Y-88127815D01*
X161837463Y-88224506D01*
X161778498Y-88334820D01*
X161742188Y-88454518D01*
X161729928Y-88579000D01*
X161612072Y-88579000D01*
X161599812Y-88454518D01*
X161563502Y-88334820D01*
X161504537Y-88224506D01*
X161425185Y-88127815D01*
X161328494Y-88048463D01*
X161218180Y-87989498D01*
X161098482Y-87953188D01*
X160974000Y-87940928D01*
X160559750Y-87944000D01*
X160401000Y-88102750D01*
X160147000Y-88102750D01*
X159988250Y-87944000D01*
X159574000Y-87940928D01*
X159449518Y-87953188D01*
X159329820Y-87989498D01*
X159219506Y-88048463D01*
X159122815Y-88127815D01*
X159043463Y-88224506D01*
X158984498Y-88334820D01*
X158948188Y-88454518D01*
X158935928Y-88579000D01*
X158552568Y-88579000D01*
X158597130Y-88432102D01*
X158615000Y-88250665D01*
X158615000Y-87529336D01*
X158597130Y-87347899D01*
X158526511Y-87115099D01*
X158411833Y-86900551D01*
X158257502Y-86712498D01*
X158124785Y-86603580D01*
X158153801Y-86585370D01*
X158168145Y-86577354D01*
X158182607Y-86567294D01*
X158226504Y-86539746D01*
X158238527Y-86528392D01*
X158252100Y-86518950D01*
X158260275Y-86510463D01*
X158265396Y-86510432D01*
X159061884Y-86510432D01*
X159062421Y-86510484D01*
X159095756Y-86510432D01*
X159129408Y-86510432D01*
X159129950Y-86510379D01*
X160272747Y-86508596D01*
X161588972Y-86508596D01*
X161589435Y-86508641D01*
X161622539Y-86508596D01*
X161656560Y-86508596D01*
X161657036Y-86508549D01*
X162973201Y-86506760D01*
X164149084Y-86506760D01*
X164948628Y-86508521D01*
G36*
X158935928Y-91529001D02*
G01*
X158952992Y-91702255D01*
X159003528Y-91868851D01*
X159085595Y-92022387D01*
X159157497Y-92110000D01*
X159155448Y-92110000D01*
X158969978Y-92146892D01*
X158795269Y-92219259D01*
X158638036Y-92324319D01*
X158615000Y-92347355D01*
X158615000Y-92259336D01*
X158597130Y-92077899D01*
X158526511Y-91845099D01*
X158411833Y-91630551D01*
X158257502Y-91442498D01*
X158141958Y-91347673D01*
X158352641Y-91136990D01*
X158935928Y-91136990D01*
X158935928Y-91529001D01*
G37*
X158935928Y-91529001D02*
X158952992Y-91702255D01*
X159003528Y-91868851D01*
X159085595Y-92022387D01*
X159157497Y-92110000D01*
X159155448Y-92110000D01*
X158969978Y-92146892D01*
X158795269Y-92219259D01*
X158638036Y-92324319D01*
X158615000Y-92347355D01*
X158615000Y-92259336D01*
X158597130Y-92077899D01*
X158526511Y-91845099D01*
X158411833Y-91630551D01*
X158257502Y-91442498D01*
X158141958Y-91347673D01*
X158352641Y-91136990D01*
X158935928Y-91136990D01*
X158935928Y-91529001D01*
%TD*%
M02*
