%TF.GenerationSoftware,KiCad,Pcbnew,(5.1.6)-1*%
%TF.CreationDate,2022-01-04T17:41:04+01:00*%
%TF.ProjectId,headphone_plug,68656164-7068-46f6-9e65-5f706c75672e,rev?*%
%TF.SameCoordinates,Original*%
%TF.FileFunction,Profile,NP*%
%FSLAX46Y46*%
G04 Gerber Fmt 4.6, Leading zero omitted, Abs format (unit mm)*
G04 Created by KiCad (PCBNEW (5.1.6)-1) date 2022-01-04 17:41:04*
%MOMM*%
%LPD*%
G01*
G04 APERTURE LIST*
%TA.AperFunction,Profile*%
%ADD10C,0.150000*%
%TD*%
%TA.AperFunction,Profile*%
%ADD11C,0.115600*%
%TD*%
G04 APERTURE END LIST*
D10*
X153365200Y-90601800D02*
G75*
G03*
X156616400Y-90601800I1625600J0D01*
G01*
X153365200Y-89408000D02*
G75*
G02*
X156616400Y-89408000I1625600J0D01*
G01*
X153365200Y-89408000D02*
X153365200Y-90601800D01*
X156616400Y-89408000D02*
X156616400Y-90601800D01*
X166700200Y-89408000D02*
X166700200Y-90601800D01*
X169951400Y-89408000D02*
X169951400Y-90601800D01*
X166700200Y-89408000D02*
G75*
G02*
X169951400Y-89408000I1625600J0D01*
G01*
X166700200Y-90601800D02*
G75*
G03*
X169951400Y-90601800I1625600J0D01*
G01*
D11*
X152748063Y-91694634D02*
X152631853Y-91414236D01*
X153100385Y-92543138D02*
X152748063Y-91694634D01*
X152631853Y-91414236D02*
X152631853Y-91414236D01*
X153716489Y-94028054D02*
X153100385Y-92543138D01*
X154362104Y-95583078D02*
X153716489Y-94028054D01*
X152628164Y-88302386D02*
X153164947Y-87503658D01*
X152430790Y-89034644D02*
X152628164Y-88302386D01*
X152631853Y-91414236D02*
X152598650Y-91333044D01*
X152430790Y-89280022D02*
X152430790Y-89034644D01*
X152598650Y-91333044D02*
X152430790Y-90633970D01*
X152430790Y-90401546D02*
X152430790Y-89280022D01*
X152430790Y-90633970D02*
X152430790Y-90401546D01*
X156367214Y-97888850D02*
X156149546Y-97888850D01*
X170183386Y-97152848D02*
X169384692Y-97689630D01*
X170919418Y-89280022D02*
X170919418Y-95378324D01*
X170919418Y-89034644D02*
X170919418Y-89280022D01*
X170720178Y-96354127D02*
X170183386Y-97152848D01*
X168408892Y-97888850D02*
X156367214Y-97888850D01*
X169384692Y-86966832D02*
X170183386Y-87503658D01*
X168408892Y-86769496D02*
X168408892Y-86769496D01*
X168032580Y-86751034D02*
X168408892Y-86769496D01*
X167147152Y-86642200D02*
X168032580Y-86751034D01*
X156149546Y-97888850D02*
X155496545Y-97623225D01*
X154778989Y-96584705D02*
X154362104Y-95583078D01*
X155496545Y-97623225D02*
X154980051Y-97066148D01*
X169384692Y-97689630D02*
X168652366Y-97888850D01*
X170183386Y-87503658D02*
X170720178Y-88302386D01*
X154919181Y-96920424D02*
X154778989Y-96584705D01*
X168652366Y-86769496D02*
X169384692Y-86966832D01*
X154980051Y-97066148D02*
X154919181Y-96920424D01*
X170919418Y-95621815D02*
X170720178Y-96354127D01*
X168652366Y-97888850D02*
X168408892Y-97888850D01*
X170720178Y-88302386D02*
X170919418Y-89034644D01*
X168408892Y-86769496D02*
X168652366Y-86769496D01*
X170919418Y-95378324D02*
X170919418Y-95621815D01*
X165451980Y-85998444D02*
X166116000Y-86360000D01*
X156208570Y-86625608D02*
X157173286Y-86339702D01*
X165302550Y-85819536D02*
X165451980Y-85998444D01*
X157948010Y-85819536D02*
X158263462Y-85817632D01*
X165300714Y-85815796D02*
X165302550Y-85819536D01*
X164983426Y-85815796D02*
X165300714Y-85815796D01*
X153164947Y-87503658D02*
X153963669Y-86966832D01*
X164149678Y-85813960D02*
X164983426Y-85815796D01*
X162972802Y-85813960D02*
X164149678Y-85813960D01*
X161622526Y-85815796D02*
X162972802Y-85813960D01*
X160272250Y-85815796D02*
X161622526Y-85815796D01*
X154695981Y-86769496D02*
X154941315Y-86769496D01*
X159095374Y-85817632D02*
X160272250Y-85815796D01*
X157173286Y-86339702D02*
X157800450Y-85989196D01*
X157800450Y-85989196D02*
X157948010Y-85819536D01*
X155361891Y-86743690D02*
X156208570Y-86625608D01*
X154978208Y-86767660D02*
X155361891Y-86743690D01*
X154946850Y-86769496D02*
X154978208Y-86767660D01*
X158263462Y-85817632D02*
X159095374Y-85817632D01*
X153963669Y-86966832D02*
X154695981Y-86769496D01*
X157948010Y-85819536D02*
X157948010Y-85819536D01*
X154941315Y-86769496D02*
X154946850Y-86769496D01*
X166116000Y-86360000D02*
X167147152Y-86642200D01*
M02*
