<?xml version="1.0" encoding="UTF-8" standalone="no"?><!DOCTYPE svg PUBLIC "-//W3C//DTD SVG 1.1//EN" "http://www.w3.org/Graphics/SVG/1.1/DTD/svg11.dtd"><svg width="100%" height="100%" viewBox="0 0 53 32" version="1.1" xmlns="http://www.w3.org/2000/svg" xmlns:xlink="http://www.w3.org/1999/xlink" xml:space="preserve" xmlns:serif="http://www.serif.com/" style="fill-rule:evenodd;clip-rule:evenodd;stroke-linecap:round;stroke-linejoin:round;stroke-miterlimit:1.5;"><path d="M7.225,2.813c0.368,-0.008 6.311,-0.181 8.475,-2.681c0,0 20.749,-0.027 20.763,0c2.206,2.631 8.773,2.682 8.773,2.682c3.911,-0 7.087,3.175 7.087,7.086l-0,14.821c-0,3.911 -3.176,7.086 -7.087,7.086l-38.029,0c-3.912,0 -7.087,-3.175 -7.087,-7.086l-0,-14.821c-0,-3.911 3.175,-7.086 7.087,-7.086l0.018,-0.001Zm42.302,7.191c0,-2.368 -1.922,-4.291 -4.29,-4.291l-0.528,0c-2.368,0 -4.29,1.923 -4.29,4.291l-0,3.916c-0,2.368 1.922,4.29 4.29,4.29l0.528,-0c2.368,-0 4.29,-1.922 4.29,-4.29l0,-3.916Zm-37.601,-0c-0,-2.368 -1.923,-4.291 -4.29,-4.291l-0.528,0c-2.368,0 -4.291,1.923 -4.291,4.291l0,3.916c0,2.368 1.923,4.29 4.291,4.29l0.528,-0c2.367,-0 4.29,-1.922 4.29,-4.29l-0,-3.916Z" style="fill:none;stroke:#000;stroke-width:0.24px;"/></svg>