  0
SECTION
  2
HEADER
  9
$ACADVER
  1
AC1009
  9
$FILLMODE
 70
 0
  9
$SPLFRAME
 70
 1
  9
$EXTMIN
 10
0
 20
0
 30
0.0
  9
$EXTMAX
 10
41.6667
 20
41.6667
 30
0.0
  0
ENDSEC
  0
SECTION
  2
TABLES
  0
TABLE
  2
LAYER
 70
1
  0
LAYER
  2
0
 70
     0
 62
     7
  6
CONTINUOUS
  0
ENDTAB
  0
ENDSEC
  0
SECTION
  2
ENTITIES
  0
POLYLINE
  8
0
 62
     0
 66
     1
 10
0
 20
0
 30
0.0
 70
     1
 40
0.18
 41
0.18
  0
VERTEX
  8
0
 10
0.00716146
 20
0.209093
 30
0.0
 40
0.0025
 41
0.0025
  0
VERTEX
  8
0
 10
0.0061849
 20
0.211481
 30
0.0
 40
0.0025
 41
0.0025
  0
VERTEX
  8
0
 10
0.00124783
 20
0.232042
 30
0.0
 40
0.0025
 41
0.0025
  0
VERTEX
  8
0
 10
0.00124783
 20
0.238878
 30
0.0
 40
0.0025
 41
0.0025
  0
VERTEX
  8
0
 10
0.00124783
 20
0.271864
 30
0.0
 40
0.0025
 41
0.0025
  0
VERTEX
  8
0
 10
0.00124783
 20
0.279081
 30
0.0
 40
0.0025
 41
0.0025
  0
VERTEX
  8
0
 10
0.00705296
 20
0.300618
 30
0.0
 40
0.0025
 41
0.0025
  0
VERTEX
  8
0
 10
0.0228407
 20
0.32411
 30
0.0
 40
0.0025
 41
0.0025
  0
VERTEX
  8
0
 10
0.0463325
 20
0.339899
 30
0.0
 40
0.0025
 41
0.0025
  0
VERTEX
  8
0
 10
0.0678711
 20
0.345703
 30
0.0
 40
0.0025
 41
0.0025
  0
VERTEX
  8
0
 10
0.0750868
 20
0.345703
 30
0.0
 40
0.0025
 41
0.0025
  0
VERTEX
  8
0
 10
0.0752496
 20
0.345703
 30
0.0
 40
0.0025
 41
0.0025
  0
VERTEX
  8
0
 10
0.0761719
 20
0.345757
 30
0.0
 40
0.0025
 41
0.0025
  0
VERTEX
  8
0
 10
0.0874567
 20
0.346462
 30
0.0
 40
0.0025
 41
0.0025
  0
VERTEX
  8
0
 10
0.112359
 20
0.349935
 30
0.0
 40
0.0025
 41
0.0025
  0
VERTEX
  8
0
 10
0.140733
 20
0.358344
 30
0.0
 40
0.0025
 41
0.0025
  0
VERTEX
  8
0
 10
0.159179
 20
0.368653
 30
0.0
 40
0.0025
 41
0.0025
  0
VERTEX
  8
0
 10
0.163519
 20
0.373643
 30
0.0
 40
0.0025
 41
0.0025
  0
VERTEX
  8
0
 10
0.163519
 20
0.373643
 30
0.0
 40
0.0025
 41
0.0025
  0
VERTEX
  8
0
 10
0.172797
 20
0.373699
 30
0.0
 40
0.0025
 41
0.0025
  0
VERTEX
  8
0
 10
0.197265
 20
0.373699
 30
0.0
 40
0.0025
 41
0.0025
  0
VERTEX
  8
0
 10
0.231879
 20
0.373753
 30
0.0
 40
0.0025
 41
0.0025
  0
VERTEX
  8
0
 10
0.271593
 20
0.373753
 30
0.0
 40
0.0025
 41
0.0025
  0
VERTEX
  8
0
 10
0.311307
 20
0.373807
 30
0.0
 40
0.0025
 41
0.0025
  0
VERTEX
  8
0
 10
0.345921
 20
0.373807
 30
0.0
 40
0.0025
 41
0.0025
  0
VERTEX
  8
0
 10
0.370443
 20
0.373753
 30
0.0
 40
0.0025
 41
0.0025
  0
VERTEX
  8
0
 10
0.379775
 20
0.373753
 30
0.0
 40
0.0025
 41
0.0025
  0
VERTEX
  8
0
 10
0.379829
 20
0.373643
 30
0.0
 40
0.0025
 41
0.0025
  0
VERTEX
  8
0
 10
0.384224
 20
0.368381
 30
0.0
 40
0.0025
 41
0.0025
  0
VERTEX
  8
0
 10
0.403754
 20
0.357747
 30
0.0
 40
0.0025
 41
0.0025
  0
VERTEX
  8
0
 10
0.434082
 20
0.349447
 30
0.0
 40
0.0025
 41
0.0025
  0
VERTEX
  8
0
 10
0.460124
 20
0.346246
 30
0.0
 40
0.0025
 41
0.0025
  0
VERTEX
  8
0
 10
0.471192
 20
0.345703
 30
0.0
 40
0.0025
 41
0.0025
  0
VERTEX
  8
0
 10
0.471192
 20
0.345703
 30
0.0
 40
0.0025
 41
0.0025
  0
VERTEX
  8
0
 10
0.478353
 20
0.345703
 30
0.0
 40
0.0025
 41
0.0025
  0
VERTEX
  8
0
 10
0.499892
 20
0.339899
 30
0.0
 40
0.0025
 41
0.0025
  0
VERTEX
  8
0
 10
0.523383
 20
0.32411
 30
0.0
 40
0.0025
 41
0.0025
  0
VERTEX
  8
0
 10
0.539171
 20
0.300618
 30
0.0
 40
0.0025
 41
0.0025
  0
VERTEX
  8
0
 10
0.545031
 20
0.279081
 30
0.0
 40
0.0025
 41
0.0025
  0
VERTEX
  8
0
 10
0.545031
 20
0.271864
 30
0.0
 40
0.0025
 41
0.0025
  0
VERTEX
  8
0
 10
0.545031
 20
0.0925022
 30
0.0
 40
0.0025
 41
0.0025
  0
VERTEX
  8
0
 10
0.545031
 20
0.0853407
 30
0.0
 40
0.0025
 41
0.0025
  0
VERTEX
  8
0
 10
0.539171
 20
0.0638021
 30
0.0
 40
0.0025
 41
0.0025
  0
VERTEX
  8
0
 10
0.523383
 20
0.0403103
 30
0.0
 40
0.0025
 41
0.0025
  0
VERTEX
  8
0
 10
0.499892
 20
0.0245226
 30
0.0
 40
0.0025
 41
0.0025
  0
VERTEX
  8
0
 10
0.478353
 20
0.0186632
 30
0.0
 40
0.0025
 41
0.0025
  0
VERTEX
  8
0
 10
0.471192
 20
0.0186632
 30
0.0
 40
0.0025
 41
0.0025
  0
VERTEX
  8
0
 10
0.117025
 20
0.0186632
 30
0.0
 40
0.0025
 41
0.0025
  0
VERTEX
  8
0
 10
0.110623
 20
0.0186632
 30
0.0
 40
0.0025
 41
0.0025
  0
VERTEX
  8
0
 10
0.0914171
 20
0.0264757
 30
0.0
 40
0.0025
 41
0.0025
  0
VERTEX
  8
0
 10
0.0762261
 20
0.0428603
 30
0.0
 40
0.0025
 41
0.0025
  0
VERTEX
  8
0
 10
0.0744358
 20
0.0471463
 30
0.0
 40
0.0025
 41
0.0025
  0
VERTEX
  8
0
 10
0.0703125
 20
0.0570204
 30
0.0
 40
0.0025
 41
0.0025
  0
VERTEX
  8
0
 10
0.0580512
 20
0.08648
 30
0.0
 40
0.0025
 41
0.0025
  0
VERTEX
  8
0
 10
0.0390625
 20
0.132216
 30
0.0
 40
0.0025
 41
0.0025
  0
VERTEX
  8
0
 10
0.0209418
 20
0.17589
 30
0.0
 40
0.0025
 41
0.0025
  0
VERTEX
  8
0
 10
0.0105794
 20
0.200846
 30
0.0
 40
0.0025
 41
0.0025
  0
VERTEX
  8
0
 10
0.00716146
 20
0.209093
 30
0.0
 40
0.0025
 41
0.0025
  0
SEQEND
 8
0
  0
POLYLINE
  8
0
 62
     0
 66
     1
 10
0
 20
0
 30
0.0
 70
     1
 40
0.18
 41
0.18
  0
VERTEX
  8
0
 10
0.515896
 20
0.270779
 30
0.0
 40
0.0025
 41
0.0025
  0
VERTEX
  8
0
 10
0.515896
 20
0.275174
 30
0.0
 40
0.0025
 41
0.0025
  0
VERTEX
  8
0
 10
0.512369
 20
0.288194
 30
0.0
 40
0.0025
 41
0.0025
  0
VERTEX
  8
0
 10
0.502767
 20
0.302408
 30
0.0
 40
0.0025
 41
0.0025
  0
VERTEX
  8
0
 10
0.488607
 20
0.312011
 30
0.0
 40
0.0025
 41
0.0025
  0
VERTEX
  8
0
 10
0.475586
 20
0.315483
 30
0.0
 40
0.0025
 41
0.0025
  0
VERTEX
  8
0
 10
0.471246
 20
0.315483
 30
0.0
 40
0.0025
 41
0.0025
  0
VERTEX
  8
0
 10
0.465712
 20
0.315483
 30
0.0
 40
0.0025
 41
0.0025
  0
VERTEX
  8
0
 10
0.461317
 20
0.315483
 30
0.0
 40
0.0025
 41
0.0025
  0
VERTEX
  8
0
 10
0.448296
 20
0.312011
 30
0.0
 40
0.0025
 41
0.0025
  0
VERTEX
  8
0
 10
0.434082
 20
0.302408
 30
0.0
 40
0.0025
 41
0.0025
  0
VERTEX
  8
0
 10
0.424479
 20
0.288194
 30
0.0
 40
0.0025
 41
0.0025
  0
VERTEX
  8
0
 10
0.421007
 20
0.275174
 30
0.0
 40
0.0025
 41
0.0025
  0
VERTEX
  8
0
 10
0.421007
 20
0.270779
 30
0.0
 40
0.0025
 41
0.0025
  0
VERTEX
  8
0
 10
0.421007
 20
0.229981
 30
0.0
 40
0.0025
 41
0.0025
  0
VERTEX
  8
0
 10
0.421007
 20
0.22564
 30
0.0
 40
0.0025
 41
0.0025
  0
VERTEX
  8
0
 10
0.424479
 20
0.212619
 30
0.0
 40
0.0025
 41
0.0025
  0
VERTEX
  8
0
 10
0.434082
 20
0.19846
 30
0.0
 40
0.0025
 41
0.0025
  0
VERTEX
  8
0
 10
0.448296
 20
0.188857
 30
0.0
 40
0.0025
 41
0.0025
  0
VERTEX
  8
0
 10
0.461317
 20
0.185331
 30
0.0
 40
0.0025
 41
0.0025
  0
VERTEX
  8
0
 10
0.465712
 20
0.185331
 30
0.0
 40
0.0025
 41
0.0025
  0
VERTEX
  8
0
 10
0.471246
 20
0.185331
 30
0.0
 40
0.0025
 41
0.0025
  0
VERTEX
  8
0
 10
0.475586
 20
0.185331
 30
0.0
 40
0.0025
 41
0.0025
  0
VERTEX
  8
0
 10
0.488607
 20
0.188857
 30
0.0
 40
0.0025
 41
0.0025
  0
VERTEX
  8
0
 10
0.502767
 20
0.19846
 30
0.0
 40
0.0025
 41
0.0025
  0
VERTEX
  8
0
 10
0.512369
 20
0.212619
 30
0.0
 40
0.0025
 41
0.0025
  0
VERTEX
  8
0
 10
0.515896
 20
0.22564
 30
0.0
 40
0.0025
 41
0.0025
  0
VERTEX
  8
0
 10
0.515896
 20
0.229981
 30
0.0
 40
0.0025
 41
0.0025
  0
VERTEX
  8
0
 10
0.515896
 20
0.270779
 30
0.0
 40
0.0025
 41
0.0025
  0
SEQEND
 8
0
  0
POLYLINE
  8
0
 62
     0
 66
     1
 10
0
 20
0
 30
0.0
 70
     1
 40
0.18
 41
0.18
  0
VERTEX
  8
0
 10
0.12424
 20
0.270779
 30
0.0
 40
0.0025
 41
0.0025
  0
VERTEX
  8
0
 10
0.12424
 20
0.275174
 30
0.0
 40
0.0025
 41
0.0025
  0
VERTEX
  8
0
 10
0.120714
 20
0.288194
 30
0.0
 40
0.0025
 41
0.0025
  0
VERTEX
  8
0
 10
0.111111
 20
0.302408
 30
0.0
 40
0.0025
 41
0.0025
  0
VERTEX
  8
0
 10
0.0968967
 20
0.312011
 30
0.0
 40
0.0025
 41
0.0025
  0
VERTEX
  8
0
 10
0.0838758
 20
0.315483
 30
0.0
 40
0.0025
 41
0.0025
  0
VERTEX
  8
0
 10
0.0795356
 20
0.315483
 30
0.0
 40
0.0025
 41
0.0025
  0
VERTEX
  8
0
 10
0.074056
 20
0.315483
 30
0.0
 40
0.0025
 41
0.0025
  0
VERTEX
  8
0
 10
0.0696615
 20
0.315483
 30
0.0
 40
0.0025
 41
0.0025
  0
VERTEX
  8
0
 10
0.0566407
 20
0.312011
 30
0.0
 40
0.0025
 41
0.0025
  0
VERTEX
  8
0
 10
0.0424262
 20
0.302408
 30
0.0
 40
0.0025
 41
0.0025
  0
VERTEX
  8
0
 10
0.0328233
 20
0.288194
 30
0.0
 40
0.0025
 41
0.0025
  0
VERTEX
  8
0
 10
0.0293511
 20
0.275174
 30
0.0
 40
0.0025
 41
0.0025
  0
VERTEX
  8
0
 10
0.0293511
 20
0.270779
 30
0.0
 40
0.0025
 41
0.0025
  0
VERTEX
  8
0
 10
0.0293511
 20
0.229981
 30
0.0
 40
0.0025
 41
0.0025
  0
VERTEX
  8
0
 10
0.0293511
 20
0.22564
 30
0.0
 40
0.0025
 41
0.0025
  0
VERTEX
  8
0
 10
0.0328233
 20
0.212619
 30
0.0
 40
0.0025
 41
0.0025
  0
VERTEX
  8
0
 10
0.0424262
 20
0.19846
 30
0.0
 40
0.0025
 41
0.0025
  0
VERTEX
  8
0
 10
0.0566407
 20
0.188857
 30
0.0
 40
0.0025
 41
0.0025
  0
VERTEX
  8
0
 10
0.0696615
 20
0.185331
 30
0.0
 40
0.0025
 41
0.0025
  0
VERTEX
  8
0
 10
0.074056
 20
0.185331
 30
0.0
 40
0.0025
 41
0.0025
  0
VERTEX
  8
0
 10
0.0795356
 20
0.185331
 30
0.0
 40
0.0025
 41
0.0025
  0
VERTEX
  8
0
 10
0.0838758
 20
0.185331
 30
0.0
 40
0.0025
 41
0.0025
  0
VERTEX
  8
0
 10
0.0968967
 20
0.188857
 30
0.0
 40
0.0025
 41
0.0025
  0
VERTEX
  8
0
 10
0.111111
 20
0.19846
 30
0.0
 40
0.0025
 41
0.0025
  0
VERTEX
  8
0
 10
0.120714
 20
0.212619
 30
0.0
 40
0.0025
 41
0.0025
  0
VERTEX
  8
0
 10
0.12424
 20
0.22564
 30
0.0
 40
0.0025
 41
0.0025
  0
VERTEX
  8
0
 10
0.12424
 20
0.229981
 30
0.0
 40
0.0025
 41
0.0025
  0
VERTEX
  8
0
 10
0.12424
 20
0.270779
 30
0.0
 40
0.0025
 41
0.0025
  0
SEQEND
 8
0
  0
ENDSEC
  0
EOF
